<svg width="45" height="30" viewBox="0 0 45 30" fill="none" xmlns="http://www.w3.org/2000/svg">
<rect width="45" height="30" rx="4" fill="white" fill-opacity="0.12"/>
<rect x="0.5" y="0.5" width="44" height="29" rx="3.5" stroke="white" stroke-opacity="0.08"/>
<path fill-rule="evenodd" clip-rule="evenodd" d="M10.7308 11.1662C11.3352 11.2158 11.9395 10.8688 12.3172 10.4289C12.6887 9.97669 12.9342 9.36954 12.8712 8.75C12.3361 8.77478 11.6751 9.09694 11.2974 9.5492C10.9512 9.93951 10.6553 10.5714 10.7308 11.1662ZM17.92 19.1459V9.48726H21.6027C23.5038 9.48726 24.8321 10.7759 24.8321 12.6593C24.8321 14.5427 23.4786 15.8437 21.5523 15.8437H19.4434V19.1459H17.92ZM12.8649 11.2839C12.3325 11.2538 11.8467 11.4415 11.4543 11.5931C11.2018 11.6907 10.9879 11.7734 10.8252 11.7734C10.6427 11.7734 10.42 11.6863 10.17 11.5886C9.84243 11.4605 9.46791 11.3141 9.07517 11.3211C8.17496 11.3335 7.3377 11.8353 6.87815 12.6345C5.93387 14.2329 6.63264 16.5995 7.54544 17.9006C7.9924 18.5449 8.52749 19.2512 9.23255 19.2264C9.54274 19.2149 9.76587 19.1217 9.99678 19.0253C10.2626 18.9142 10.5388 18.7989 10.97 18.7989C11.3863 18.7989 11.6504 18.9112 11.9039 19.0191C12.145 19.1216 12.3764 19.22 12.7201 19.214C13.4503 19.2016 13.9099 18.5697 14.3568 17.9254C14.8392 17.2338 15.0511 16.5589 15.0833 16.4565L15.0833 16.4565L15.0871 16.4447C15.0863 16.4439 15.0803 16.4412 15.0698 16.4365C14.9086 16.3638 13.6762 15.8086 13.6644 14.3197C13.6525 13.0699 14.6419 12.4367 14.7976 12.337C14.8071 12.331 14.8135 12.3269 14.8164 12.3247C14.1869 11.4078 13.2048 11.3087 12.8649 11.2839ZM27.6146 19.2201C28.5715 19.2201 29.4591 18.7431 29.862 17.9873H29.8935V19.1458H31.3036V14.3382C31.3036 12.9442 30.1705 12.0459 28.4267 12.0459C26.8088 12.0459 25.6128 12.9566 25.5687 14.2081H26.941C27.0544 13.6133 27.6146 13.223 28.3826 13.223C29.3143 13.223 29.8368 13.6505 29.8368 14.4373V14.9701L27.9357 15.0816C26.1667 15.187 25.2099 15.8994 25.2099 17.1385C25.2099 18.39 26.1982 19.2201 27.6146 19.2201ZM28.0237 18.074C27.2117 18.074 26.6955 17.6899 26.6955 17.1014C26.6955 16.4942 27.1928 16.1411 28.1433 16.0853L29.8368 15.98V16.5252C29.8368 17.4297 29.0561 18.074 28.0237 18.074ZM35.9809 19.5237C35.3703 21.2151 34.6715 21.7727 33.1858 21.7727C33.0725 21.7727 32.6948 21.7603 32.6067 21.7355V20.5769C32.7011 20.5893 32.934 20.6017 33.0536 20.6017C33.7272 20.6017 34.1049 20.3229 34.3378 19.5981L34.4763 19.1706L31.8953 12.1389H33.488L35.2821 17.8448H35.3136L37.1077 12.1389H38.6563L35.9809 19.5237ZM19.4433 10.7511H21.1996C22.5216 10.7511 23.2771 11.445 23.2771 12.6655C23.2771 13.886 22.5216 14.586 21.1933 14.586H19.4433V10.7511Z" fill="white"/>
</svg>
