<svg width="44" height="30" viewBox="0 0 44 30" fill="none" xmlns="http://www.w3.org/2000/svg">
<rect width="44" height="30" rx="4" fill="white" fill-opacity="0.12"/>
<rect x="0.5" y="0.5" width="43" height="29" rx="3.5" stroke="white" stroke-opacity="0.08"/>
<path d="M34.5679 17.899H34.5894L36.4243 13.3199H37.7144L33.7495 22.5005H32.5269L34.0005 19.2886L31.3989 13.3199H32.689L34.5679 17.899ZM28.3628 13.1119C29.2396 13.1119 29.9325 13.3497 30.4409 13.8179C30.9493 14.2862 31.1997 14.9402 31.1997 15.7652V19.6978H30.0649V18.813H30.0142C29.5204 19.5415 28.8712 19.9058 28.0532 19.9058C27.3608 19.9057 26.7713 19.6979 26.3071 19.2818C25.8503 18.8953 25.5922 18.3224 25.6069 17.7203C25.607 17.0588 25.8574 16.538 26.3511 16.1441C26.8447 15.7502 27.5083 15.5572 28.3335 15.5572C29.0409 15.5572 29.6159 15.6912 30.0728 15.9439V15.6685C30.0727 15.2598 29.8958 14.8735 29.5864 14.606C29.2696 14.3235 28.8639 14.1675 28.4438 14.1675C27.7809 14.1676 27.2576 14.4496 26.8745 15.0142L25.8286 14.3531C26.3886 13.5282 27.2356 13.112 28.3628 13.1119ZM22.7407 10.3765C23.4997 10.3617 24.237 10.6509 24.7749 11.1861C25.8507 12.197 25.9163 13.9 24.9067 14.9927L24.7749 15.1265C24.2222 15.6543 23.5439 15.9214 22.7407 15.9214H20.7808V19.6978H19.5942V10.3765H22.7407ZM28.5181 16.524C28.0394 16.524 27.6342 16.6424 27.3101 16.8726C26.9932 17.1031 26.8306 17.3934 26.8306 17.7427C26.8306 18.0549 26.9781 18.3446 27.2212 18.523C27.4864 18.7311 27.8106 18.8428 28.1421 18.8355C28.6432 18.8355 29.1223 18.6346 29.4761 18.2779C29.8666 17.9063 30.0659 17.4678 30.0659 16.9625C29.6974 16.6651 29.1814 16.5166 28.5181 16.524ZM20.7808 14.7769H22.771C23.2131 14.7917 23.6408 14.6131 23.9429 14.2935C24.5616 13.6468 24.5467 12.6063 23.9058 11.982C23.6037 11.6847 23.1983 11.5211 22.771 11.5211H20.7808V14.7769Z" fill="white"/>
<path d="M16.6849 15.1038C16.6849 14.7396 16.6554 14.3754 16.5964 14.0186H11.593V16.0776H14.4595C14.3416 16.7392 13.9584 17.3339 13.3984 17.7055V19.0436H15.1079C16.1101 18.1144 16.6849 16.7392 16.6849 15.1038Z" fill="white"/>
<path d="M11.5931 20.337C13.0227 20.337 14.2312 19.8613 15.1081 19.0436L13.3985 17.7056C12.9195 18.0326 12.3079 18.2185 11.5931 18.2185C10.2078 18.2185 9.03615 17.2744 8.61613 16.0107H6.85498V17.3934C7.75398 19.1997 9.58881 20.337 11.5931 20.337Z" fill="white"/>
<path d="M8.6164 16.0103C8.3953 15.3487 8.3953 14.6277 8.6164 13.9587V12.5835H6.85498C6.09587 14.0925 6.09587 15.8765 6.85498 17.3855L8.6164 16.0103Z" fill="white"/>
<path d="M11.5931 11.7512C12.3521 11.7363 13.0816 12.0262 13.6269 12.554L15.1449 11.0227C14.1796 10.1158 12.9121 9.61778 11.5931 9.63265C9.58881 9.63265 7.75398 10.7774 6.85498 12.5837L8.61613 13.9664C9.03615 12.6952 10.2078 11.7512 11.5931 11.7512Z" fill="white"/>
</svg>
