<svg width="45" height="30" viewBox="0 0 45 30" fill="none" xmlns="http://www.w3.org/2000/svg">
<rect width="45" height="30" rx="4" fill="white" fill-opacity="0.12"/>
<rect x="0.5" y="0.5" width="44" height="29" rx="3.5" stroke="white" stroke-opacity="0.08"/>
<path d="M28.5125 6.25C33.3578 6.25006 37.2859 10.1134 37.2859 14.8789C37.2858 19.6443 33.3578 23.5078 28.5125 23.5078C26.3401 23.5078 24.3533 22.7295 22.821 21.4434C21.2889 22.7293 19.3027 23.5078 17.1306 23.5078C12.2852 23.5078 8.35727 19.6443 8.35718 14.8789C8.35718 10.1134 12.2852 6.25 17.1306 6.25C19.3026 6.25 21.2889 7.02771 22.821 8.31348C24.3532 7.02746 26.3403 6.25 28.5125 6.25Z" fill="white" fill-opacity="0.38"/>
<path d="M28.512 6.25C33.3574 6.25 37.2854 10.1134 37.2854 14.8789C37.2853 19.6443 33.3573 23.5078 28.512 23.5078C26.3397 23.5077 24.3537 22.7286 22.8215 21.4424C24.7068 19.8598 25.9045 17.5077 25.9045 14.8789C25.9045 12.2499 24.707 9.89711 22.8215 8.31445C24.3537 7.02841 26.3398 6.25011 28.512 6.25Z" fill="white" fill-opacity="0.39"/>
<path d="M22.821 8.31396C24.7069 9.89663 25.9041 12.2501 25.9041 14.8794C25.9039 17.5085 24.7068 19.8613 22.821 21.4438C20.9357 19.8613 19.7391 17.5083 19.739 14.8794C19.739 12.2503 20.9355 9.89662 22.821 8.31396Z" fill="white"/>
</svg>
