<svg width="44" height="30" viewBox="0 0 44 30" fill="none" xmlns="http://www.w3.org/2000/svg">
<rect width="44" height="30" rx="4" fill="white" fill-opacity="0.12"/>
<rect x="0.5" y="0.5" width="43" height="29" rx="3.5" stroke="white" stroke-opacity="0.08"/>
<path fill-rule="evenodd" clip-rule="evenodd" d="M13.3574 20.3228H10.6919L8.69305 12.7405C8.59817 12.3917 8.39673 12.0833 8.10041 11.938C7.36092 11.5728 6.54605 11.2821 5.6571 11.1355V10.8436H9.95109C10.5437 10.8436 10.9882 11.2821 11.0623 11.7914L12.0994 17.2608L14.7636 10.8436H17.3551L13.3574 20.3228ZM18.8367 20.3228H16.3193L18.3922 10.8436H20.9096L18.8367 20.3228ZM24.1665 13.4696C24.2406 12.9591 24.685 12.6672 25.2036 12.6672C26.0185 12.5939 26.9061 12.7405 27.6469 13.1044L28.0914 11.0635C27.3506 10.7716 26.5357 10.625 25.7962 10.625C23.3529 10.625 21.575 11.938 21.575 13.7603C21.575 15.1466 22.8344 15.8745 23.7233 16.313C24.685 16.7503 25.0554 17.0422 24.9814 17.4794C24.9814 18.1353 24.2406 18.4272 23.5011 18.4272C22.6121 18.4272 21.7232 18.2086 20.9096 17.8434L20.4651 19.8856C21.3541 20.2495 22.3158 20.3961 23.2048 20.3961C25.9444 20.4681 27.6469 19.1564 27.6469 17.1875C27.6469 14.7081 24.1665 14.5628 24.1665 13.4696ZM36.4571 20.3228L34.4583 10.8436H32.3113C31.8668 10.8436 31.4223 11.1355 31.2742 11.5728L27.5728 20.3228H30.1643L30.6815 18.9378H33.8656L34.162 20.3228H36.4571ZM32.6817 13.3964L33.4212 16.9689H31.3482L32.6817 13.3964Z" fill="white"/>
</svg>
