<svg width="24" height="24" viewBox="0 0 24 24" fill="none" xmlns="http://www.w3.org/2000/svg">
<path d="M2 14.5C2 11.213 2 9.569 2.908 8.462C3.07409 8.25965 3.25965 8.07409 3.462 7.908C4.57 7 6.212 7 9.5 7H14.5C17.788 7 19.431 7 20.538 7.908C20.7404 8.07409 20.9259 8.25965 21.092 8.462C22 9.57 22 11.212 22 14.5C22 17.788 22 19.431 21.092 20.538C20.9259 20.7404 20.7404 20.9259 20.538 21.092C19.43 22 17.788 22 14.5 22H9.5C6.213 22 4.569 22 3.462 21.092C3.25965 20.9259 3.07409 20.7404 2.908 20.538C2 19.43 2 17.788 2 14.5Z" stroke="#BDE153" stroke-width="1.5" stroke-linecap="round"/>
<path d="M12 7V5C12 4.73478 12.1054 4.48043 12.2929 4.29289C12.4804 4.10536 12.7348 4 13 4C13.2652 4 13.5196 3.89464 13.7071 3.70711C13.8946 3.51957 14 3.26522 14 3V2" stroke="#BDE153" stroke-width="1.5" stroke-linecap="round" stroke-linejoin="round"/>
<path d="M10 16L8.5 14.5M8.5 14.5L7 13M8.5 14.5L7 16M8.5 14.5L10 13" stroke="#BDE153" stroke-width="1.5" stroke-linecap="round"/>
<path d="M17 15.5V13.5" stroke="#BDE153" stroke-width="1.5" stroke-linecap="round" stroke-linejoin="round"/>
</svg>
