<svg width="24" height="24" viewBox="0 0 24 24" fill="none" xmlns="http://www.w3.org/2000/svg">
<path d="M16.5999 5.82C15.9165 5.03953 15.5398 4.0374 15.5399 3H12.4499V15.4C12.4266 16.0712 12.1434 16.7071 11.6602 17.1735C11.177 17.6399 10.5315 17.9004 9.85991 17.9C8.43991 17.9 7.25991 16.74 7.25991 15.3C7.25991 13.58 8.91991 12.29 10.6299 12.82V9.66C7.17991 9.2 4.15991 11.88 4.15991 15.3C4.15991 18.63 6.91991 21 9.84991 21C12.9899 21 15.5399 18.45 15.5399 15.3V9.01C16.7929 9.90985 18.2973 10.3926 19.8399 10.39V7.3C19.8399 7.3 17.9599 7.39 16.5999 5.82Z" fill="#BDE153"/>
</svg>
