<svg width="115" height="27" viewBox="0 0 115 27" fill="none" xmlns="http://www.w3.org/2000/svg">
<path d="M39.1983 20.2131C38.6468 20.2131 38.1107 20.1442 37.5898 20.0063C37.0843 19.8531 36.6324 19.6233 36.2341 19.3169C35.8358 19.0106 35.5218 18.6276 35.292 18.168C35.0622 17.7085 34.9474 17.1723 34.9474 16.5596C34.9474 15.7324 35.1159 15.0737 35.4529 14.5835C35.7899 14.078 36.2418 13.695 36.8086 13.4346C37.3754 13.1742 38.0264 12.998 38.7617 12.9061C39.5123 12.8142 40.2859 12.7682 41.0825 12.7682H42.8288C42.8288 12.324 42.7446 11.9333 42.5761 11.5963C42.4229 11.244 42.1854 10.9759 41.8637 10.7921C41.542 10.593 41.1284 10.4934 40.6229 10.4934C40.3012 10.4934 39.9872 10.5393 39.6808 10.6313C39.3898 10.7079 39.1447 10.8227 38.9455 10.9759C38.7464 11.1291 38.6162 11.3283 38.5549 11.5734H35.292C35.3839 10.8993 35.5984 10.3249 35.9354 9.85001C36.2724 9.35981 36.6937 8.96152 37.1992 8.65515C37.7047 8.34878 38.2562 8.12666 38.8536 7.98879C39.4664 7.8356 40.0944 7.75901 40.7378 7.75901C42.4995 7.75901 43.8016 8.26452 44.6441 9.27556C45.4866 10.2713 45.9079 11.6882 45.9079 13.5265V20.0522H43.0126L42.9667 18.4897C42.5837 19.0259 42.1471 19.4165 41.6569 19.6616C41.1821 19.9067 40.7225 20.0599 40.2783 20.1212C39.834 20.1825 39.474 20.2131 39.1983 20.2131ZM39.9336 17.6625C40.4697 17.6625 40.9599 17.5553 41.4042 17.3408C41.8484 17.1264 42.2007 16.8353 42.4612 16.4677C42.7216 16.1 42.8518 15.6864 42.8518 15.2269V14.9281H40.6459C40.3242 14.9281 40.0102 14.9435 39.7038 14.9741C39.4127 15.0047 39.1447 15.066 38.8996 15.1579C38.6698 15.2345 38.486 15.3647 38.3481 15.5486C38.2102 15.7324 38.1413 15.9775 38.1413 16.2839C38.1413 16.5902 38.2179 16.8506 38.3711 17.0651C38.5396 17.2642 38.7617 17.4174 39.0374 17.5247C39.3132 17.6166 39.6119 17.6625 39.9336 17.6625ZM53.7976 25.6589C52.8478 25.6589 51.9747 25.5057 51.1781 25.1993C50.3815 24.9083 49.7075 24.441 49.156 23.7977C48.6046 23.1543 48.2292 22.3271 48.0301 21.316H51.316C51.4232 21.6224 51.5917 21.8752 51.8215 22.0743C52.0666 22.2888 52.3576 22.4496 52.6946 22.5568C53.047 22.6641 53.4146 22.7177 53.7976 22.7177C54.5176 22.7177 55.0767 22.5645 55.475 22.2581C55.8733 21.9518 56.149 21.5458 56.3022 21.0403C56.4554 20.5501 56.532 20.0063 56.532 19.4089V18.5587C56.2562 19.0029 55.9116 19.3399 55.498 19.5697C55.0844 19.7995 54.6478 19.9603 54.1882 20.0522C53.744 20.1595 53.315 20.2131 52.9014 20.2131C51.63 20.2131 50.596 19.9297 49.7994 19.3629C49.0028 18.7961 48.4207 18.0532 48.0531 17.134C47.6854 16.1996 47.5016 15.1962 47.5016 14.1239C47.5016 12.9444 47.7084 11.8721 48.122 10.907C48.5356 9.94192 49.156 9.17598 49.9832 8.60919C50.8104 8.0424 51.8445 7.75901 53.0853 7.75901C53.8359 7.75901 54.5022 7.88156 55.0844 8.12665C55.6665 8.35644 56.1643 8.70111 56.5779 9.16067L56.8537 7.94283H59.7948V18.5127C59.7948 19.9833 59.6034 21.2471 59.2204 22.3041C58.8374 23.3764 58.2017 24.2036 57.3132 24.7857C56.4401 25.3678 55.2682 25.6589 53.7976 25.6589ZM53.6138 17.3179C54.2878 17.3179 54.8393 17.1647 55.2682 16.8583C55.7124 16.5519 56.0418 16.146 56.2562 15.6405C56.4707 15.1196 56.5779 14.5605 56.5779 13.9631C56.5779 13.335 56.4707 12.7759 56.2562 12.2857C56.0418 11.7802 55.7201 11.3819 55.2912 11.0908C54.8622 10.7844 54.3108 10.6313 53.6367 10.6313C52.9014 10.6313 52.3193 10.8074 51.8904 11.1598C51.4615 11.4968 51.1551 11.9257 50.9713 12.4465C50.8028 12.952 50.7185 13.4882 50.7185 14.055C50.7185 14.6371 50.8104 15.1809 50.9943 15.6864C51.1781 16.1766 51.4845 16.5749 51.9134 16.8813C52.3423 17.1723 52.9091 17.3179 53.6138 17.3179ZM67.4006 20.2131C66.1291 20.2131 65.0492 19.9603 64.1607 19.4548C63.2722 18.9493 62.5905 18.237 62.1156 17.3179C61.6407 16.3834 61.4033 15.2958 61.4033 14.055C61.4033 12.7989 61.6484 11.7036 62.1386 10.7691C62.6288 9.81937 63.3181 9.07641 64.2066 8.54026C65.1104 8.00411 66.1751 7.73603 67.4006 7.73603C68.3197 7.73603 69.1239 7.88922 69.8133 8.19559C70.5179 8.50196 71.1077 8.93089 71.5826 9.48236C72.0728 10.0338 72.4328 10.6772 72.6625 11.4125C72.9076 12.1325 73.0225 12.9137 73.0072 13.7563C73.0072 13.9707 72.9995 14.1775 72.9842 14.3767C72.9689 14.5758 72.9383 14.775 72.8923 14.9741H64.5973C64.6432 15.4337 64.7734 15.8549 64.9879 16.2379C65.2023 16.6209 65.5011 16.9272 65.884 17.157C66.2823 17.3715 66.7725 17.4787 67.3546 17.4787C67.7376 17.4787 68.0899 17.4404 68.4116 17.3638C68.7333 17.2719 69.009 17.134 69.2388 16.9502C69.4686 16.7664 69.6294 16.5519 69.7213 16.3068H72.8923C72.6932 17.2106 72.3179 17.9536 71.7664 18.5357C71.2302 19.1178 70.5792 19.5467 69.8133 19.8225C69.0473 20.0829 68.2431 20.2131 67.4006 20.2131ZM64.6662 12.7223H69.9282C69.9128 12.3087 69.8056 11.9257 69.6065 11.5734C69.4226 11.2057 69.1392 10.9147 68.7563 10.7002C68.3886 10.4704 67.9137 10.3555 67.3316 10.3555C66.7495 10.3555 66.2593 10.4704 65.861 10.7002C65.4781 10.93 65.187 11.2287 64.9879 11.5963C64.8041 11.9487 64.6968 12.324 64.6662 12.7223ZM74.6202 20.0522V7.94283H77.6303L77.7911 9.34449C78.1281 8.93089 78.5111 8.60919 78.94 8.37941C79.3843 8.13431 79.8285 7.96581 80.2727 7.8739C80.7323 7.78199 81.1459 7.73603 81.5136 7.73603C82.6778 7.73603 83.5816 7.98879 84.225 8.4943C84.8837 8.99982 85.3509 9.6815 85.6266 10.5393C85.9177 11.3819 86.0632 12.324 86.0632 13.3656V20.0522H82.8463V13.7792C82.8463 13.4116 82.8156 13.044 82.7544 12.6763C82.6931 12.3087 82.5782 11.9716 82.4097 11.6653C82.2565 11.3589 82.0344 11.1138 81.7433 10.93C81.4523 10.7461 81.0693 10.6542 80.5944 10.6542C79.9817 10.6542 79.4685 10.8074 79.0549 11.1138C78.6413 11.4202 78.3349 11.8338 78.1358 12.3546C77.9366 12.8754 77.8371 13.4499 77.8371 14.078V20.0522H74.6202ZM93.4959 20.2131C92.2551 20.2131 91.1904 19.9603 90.3019 19.4548C89.4288 18.9493 88.7624 18.237 88.3028 17.3179C87.8433 16.3834 87.6135 15.2881 87.6135 14.032C87.6135 12.7606 87.8509 11.6576 88.3258 10.7232C88.8007 9.77341 89.4824 9.03812 90.3709 8.51728C91.2747 7.99645 92.3623 7.73603 93.6337 7.73603C94.6141 7.73603 95.4873 7.91219 96.2532 8.26452C97.0192 8.61685 97.6319 9.12237 98.0915 9.78107C98.5664 10.4398 98.8421 11.2517 98.9187 12.2167H95.7707C95.6328 11.6806 95.3648 11.29 94.9665 11.0449C94.5835 10.7998 94.1239 10.6772 93.5878 10.6772C92.8985 10.6772 92.347 10.8457 91.9334 11.1827C91.5351 11.5197 91.244 11.9487 91.0602 12.4695C90.8917 12.9903 90.8075 13.5112 90.8075 14.032C90.8075 14.5988 90.8994 15.135 91.0832 15.6405C91.267 16.1307 91.5581 16.5366 91.9564 16.8583C92.37 17.1647 92.9061 17.3179 93.5648 17.3179C94.1163 17.3179 94.5988 17.1953 95.0124 16.9502C95.426 16.6898 95.6941 16.2915 95.8167 15.7554H99.0336C98.957 16.7511 98.6583 17.5783 98.1374 18.237C97.6166 18.8957 96.9502 19.3935 96.1384 19.7306C95.3418 20.0522 94.461 20.2131 93.4959 20.2131ZM105.87 25.6359C104.936 25.6359 104.024 25.5134 103.136 25.2683C102.247 25.0232 101.412 24.6096 100.631 24.0274L101.711 21.4539C102.201 21.8216 102.76 22.1126 103.388 22.3271C104.017 22.5568 104.714 22.6717 105.479 22.6717C106.659 22.6717 107.532 22.396 108.099 21.8445C108.681 21.2931 108.972 20.4965 108.972 19.4548V18.8114C108.712 19.1638 108.382 19.4472 107.984 19.6616C107.601 19.8608 107.187 20.0063 106.743 20.0982C106.299 20.1901 105.855 20.2361 105.411 20.2361C104.246 20.2361 103.312 19.991 102.607 19.5008C101.903 19.0106 101.389 18.3442 101.068 17.5017C100.761 16.6438 100.608 15.6711 100.608 14.5835V7.94283H103.825V13.9171C103.825 14.3154 103.848 14.7137 103.894 15.112C103.94 15.5103 104.047 15.8779 104.216 16.2149C104.384 16.5519 104.637 16.8277 104.974 17.0421C105.311 17.2413 105.763 17.3408 106.33 17.3408C107.065 17.3408 107.616 17.1647 107.984 16.8123C108.352 16.4447 108.597 15.9851 108.719 15.4337C108.857 14.8822 108.926 14.3077 108.926 13.7103V7.94283H112.143V18.3059C112.143 19.4089 112.036 20.4122 111.821 21.316C111.622 22.2198 111.278 22.9934 110.787 23.6368C110.312 24.2802 109.669 24.7704 108.857 25.1074C108.061 25.4597 107.065 25.6359 105.87 25.6359Z" fill="white" fill-opacity="0.35"/>
<path d="M25.5311 12.7133C25.5311 15.2381 24.7824 17.7062 23.3797 19.8055C21.977 21.9048 19.9833 23.541 17.6507 24.5072C15.3181 25.4734 12.7514 25.7262 10.2751 25.2336C7.79885 24.741 5.52424 23.5252 3.73895 21.7399C1.95365 19.9546 0.737849 17.68 0.245287 15.2038C-0.247275 12.7275 0.0055254 10.1608 0.971721 7.82815C1.93792 5.49555 3.57411 3.50184 5.6734 2.09914C7.77268 0.696441 10.2408 -0.0522461 12.7656 -0.0522461V6.33054C11.5032 6.33054 10.2691 6.70488 9.21948 7.40623C8.16984 8.10758 7.35174 9.10443 6.86864 10.2707C6.38555 11.437 6.25915 12.7204 6.50543 13.9585C6.75171 15.1967 7.35961 16.334 8.25226 17.2266C9.14491 18.1193 10.2822 18.7272 11.5203 18.9735C12.7585 19.2197 14.0419 19.0933 15.2082 18.6102C16.3745 18.1271 17.3713 17.309 18.0727 16.2594C18.774 15.2098 19.1483 13.9757 19.1483 12.7133H25.5311Z" fill="white" fill-opacity="0.35"/>
<rect x="19.0414" y="13.4424" width="0.729439" height="6.48968" transform="rotate(-90 19.0414 13.4424)" fill="white"/>
<path d="M25.5284 6.33057H25.5275V11.5522H19.1447V6.33057H13.923V-0.0522461H25.5284V6.33057Z" fill="white" fill-opacity="0.35"/>
</svg>
