<svg width="127" height="27" viewBox="0 0 127 27" fill="none" xmlns="http://www.w3.org/2000/svg">
<path d="M31.6745 20.9658V5.2112H34.9516V11.1346H35.0516C35.1952 10.8166 35.4029 10.4935 35.6747 10.1653C35.9516 9.83194 36.3106 9.555 36.7516 9.33448C37.1978 9.10883 37.7517 8.996 38.4133 8.996C39.2748 8.996 40.0698 9.22165 40.798 9.67296C41.5262 10.1191 42.1083 10.7935 42.5442 11.6961C42.9802 12.5936 43.1981 13.7193 43.1981 15.0732C43.1981 16.3912 42.9853 17.5041 42.5596 18.4118C42.1391 19.3145 41.5647 19.9991 40.8365 20.4658C40.1134 20.9274 39.3031 21.1581 38.4056 21.1581C37.7696 21.1581 37.2286 21.053 36.7824 20.8427C36.3414 20.6325 35.9798 20.3684 35.6977 20.0504C35.4157 19.7273 35.2003 19.4016 35.0516 19.0734H34.9054V20.9658H31.6745ZM34.8823 15.0578C34.8823 15.7604 34.9798 16.3733 35.1746 16.8964C35.3695 17.4195 35.6516 17.8272 36.0208 18.1195C36.3901 18.4067 36.8388 18.5503 37.3671 18.5503C37.9004 18.5503 38.3517 18.4042 38.721 18.1118C39.0902 17.8144 39.3697 17.4041 39.5595 16.881C39.7544 16.3528 39.8518 15.7451 39.8518 15.0578C39.8518 14.3758 39.7569 13.7757 39.5672 13.2577C39.3774 12.7398 39.0979 12.3346 38.7287 12.0423C38.3594 11.75 37.9056 11.6038 37.3671 11.6038C36.8337 11.6038 36.3824 11.7449 36.0131 12.0269C35.649 12.309 35.3695 12.709 35.1746 13.227C34.9798 13.745 34.8823 14.3552 34.8823 15.0578ZM52.9621 15.9348V9.14985H56.2391V20.9658H53.0928V18.8196H52.9698C52.7031 19.5119 52.2595 20.0683 51.6389 20.4889C51.0235 20.9094 50.2722 21.1197 49.385 21.1197C48.5952 21.1197 47.9003 20.9402 47.3002 20.5812C46.7002 20.2222 46.231 19.7119 45.8925 19.0503C45.5591 18.3888 45.3899 17.5964 45.3848 16.6733V9.14985H48.6618V16.0887C48.667 16.7861 48.8542 17.3374 49.2234 17.7426C49.5927 18.1477 50.0876 18.3503 50.7081 18.3503C51.103 18.3503 51.4722 18.2606 51.8159 18.0811C52.1595 17.8964 52.4364 17.6246 52.6467 17.2656C52.8621 16.9066 52.9672 16.463 52.9621 15.9348ZM68.6917 12.5193L65.6915 12.7039C65.6402 12.4475 65.53 12.2167 65.3607 12.0115C65.1915 11.8013 64.9684 11.6346 64.6915 11.5115C64.4197 11.3833 64.094 11.3192 63.7145 11.3192C63.2068 11.3192 62.7786 11.4269 62.4298 11.6423C62.0811 11.8526 61.9067 12.1346 61.9067 12.4885C61.9067 12.7705 62.0196 13.009 62.2452 13.2039C62.4709 13.3988 62.8581 13.5552 63.4068 13.6732L65.5454 14.1039C66.6941 14.3399 67.5506 14.7194 68.1147 15.2425C68.6789 15.7656 68.9609 16.4528 68.9609 17.3041C68.9609 18.0785 68.7327 18.758 68.2763 19.3427C67.825 19.9273 67.2044 20.3837 66.4146 20.712C65.63 21.0351 64.7248 21.1966 63.6991 21.1966C62.1349 21.1966 60.8887 20.8709 59.9605 20.2196C59.0374 19.5632 58.4963 18.6708 58.3373 17.5426L61.5606 17.3733C61.658 17.8503 61.8939 18.2144 62.2683 18.4657C62.6427 18.7119 63.1222 18.8349 63.7068 18.8349C64.2812 18.8349 64.7428 18.7247 65.0915 18.5042C65.4454 18.2785 65.6249 17.9888 65.63 17.6349C65.6249 17.3374 65.4992 17.0938 65.2531 16.9041C65.0069 16.7092 64.6274 16.5605 64.1145 16.4579L62.0683 16.0502C60.9144 15.8194 60.0554 15.4194 59.4912 14.8501C58.9322 14.2809 58.6527 13.5552 58.6527 12.6731C58.6527 11.9141 58.8579 11.2602 59.2681 10.7115C59.6835 10.1627 60.2656 9.73963 61.0144 9.44218C61.7683 9.14473 62.6504 8.996 63.6607 8.996C65.153 8.996 66.3275 9.3114 67.1839 9.9422C68.0455 10.573 68.5481 11.432 68.6917 12.5193ZM71.0245 20.9658V9.14985H74.3016V20.9658H71.0245ZM72.6707 7.6267C72.1835 7.6267 71.7656 7.46515 71.4168 7.14206C71.0732 6.81384 70.9014 6.42151 70.9014 5.96508C70.9014 5.51378 71.0732 5.12658 71.4168 4.80349C71.7656 4.47526 72.1835 4.31115 72.6707 4.31115C73.1579 4.31115 73.5733 4.47526 73.9169 4.80349C74.2657 5.12658 74.44 5.51378 74.44 5.96508C74.44 6.42151 74.2657 6.81384 73.9169 7.14206C73.5733 7.46515 73.1579 7.6267 72.6707 7.6267ZM80.2038 14.1347V20.9658H76.9267V9.14985H80.0499V11.2346H80.1884C80.45 10.5474 80.8884 10.0037 81.5039 9.60372C82.1193 9.19857 82.8655 8.996 83.7424 8.996C84.563 8.996 85.2784 9.1755 85.8887 9.53449C86.499 9.89348 86.9734 10.4063 87.3118 11.073C87.6503 11.7346 87.8195 12.5244 87.8195 13.4424V20.9658H84.5425V14.027C84.5476 13.3039 84.363 12.7398 83.9886 12.3346C83.6142 11.9243 83.0988 11.7192 82.4424 11.7192C82.0013 11.7192 81.6115 11.8141 81.2731 12.0038C80.9397 12.1936 80.6782 12.4705 80.4884 12.8347C80.3038 13.1936 80.2089 13.627 80.2038 14.1347ZM95.7872 21.1966C94.5718 21.1966 93.5256 20.9504 92.6486 20.4581C91.7768 19.9606 91.105 19.258 90.6331 18.3503C90.1613 17.4374 89.9254 16.3579 89.9254 15.1117C89.9254 13.8962 90.1613 12.8295 90.6331 11.9115C91.105 10.9935 91.7691 10.2781 92.6256 9.76527C93.4871 9.25242 94.4974 8.996 95.6565 8.996C96.436 8.996 97.1617 9.12165 97.8335 9.37294C98.5105 9.61911 99.1002 9.99092 99.6028 10.4884C100.111 10.9858 100.505 11.6115 100.787 12.3654C101.07 13.1142 101.211 13.9911 101.211 14.9963V15.8963H91.2332V13.8655H98.1258C98.1258 13.3937 98.0233 12.9757 97.8181 12.6116C97.613 12.2474 97.3283 11.9628 96.9642 11.7577C96.6052 11.5474 96.1873 11.4423 95.7103 11.4423C95.2129 11.4423 94.7718 11.5577 94.3872 11.7884C94.0077 12.0141 93.7102 12.3192 93.4948 12.7039C93.2794 13.0834 93.1692 13.5065 93.164 13.9732V15.904C93.164 16.4887 93.2717 16.9938 93.4871 17.4195C93.7077 17.8452 94.0179 18.1734 94.4179 18.4042C94.818 18.6349 95.2923 18.7503 95.8411 18.7503C96.2052 18.7503 96.5386 18.699 96.8411 18.5965C97.1437 18.4939 97.4027 18.34 97.6181 18.1349C97.8335 17.9298 97.9976 17.6785 98.1104 17.381L101.141 17.581C100.988 18.3093 100.672 18.9452 100.195 19.4888C99.7233 20.0273 99.1131 20.4478 98.3643 20.7504C97.6207 21.0479 96.7617 21.1966 95.7872 21.1966ZM113.18 12.5193L110.18 12.7039C110.129 12.4475 110.019 12.2167 109.849 12.0115C109.68 11.8013 109.457 11.6346 109.18 11.5115C108.908 11.3833 108.583 11.3192 108.203 11.3192C107.696 11.3192 107.267 11.4269 106.919 11.6423C106.57 11.8526 106.395 12.1346 106.395 12.4885C106.395 12.7705 106.508 13.009 106.734 13.2039C106.96 13.3988 107.347 13.5552 107.896 13.6732L110.034 14.1039C111.183 14.3399 112.039 14.7194 112.603 15.2425C113.168 15.7656 113.45 16.4528 113.45 17.3041C113.45 18.0785 113.221 18.758 112.765 19.3427C112.314 19.9273 111.693 20.3837 110.903 20.712C110.119 21.0351 109.214 21.1966 108.188 21.1966C106.624 21.1966 105.377 20.8709 104.449 20.2196C103.526 19.5632 102.985 18.6708 102.826 17.5426L106.049 17.3733C106.147 17.8503 106.383 18.2144 106.757 18.4657C107.131 18.7119 107.611 18.8349 108.196 18.8349C108.77 18.8349 109.231 18.7247 109.58 18.5042C109.934 18.2785 110.114 17.9888 110.119 17.6349C110.114 17.3374 109.988 17.0938 109.742 16.9041C109.496 16.7092 109.116 16.5605 108.603 16.4579L106.557 16.0502C105.403 15.8194 104.544 15.4194 103.98 14.8501C103.421 14.2809 103.141 13.5552 103.141 12.6731C103.141 11.9141 103.347 11.2602 103.757 10.7115C104.172 10.1627 104.754 9.73963 105.503 9.44218C106.257 9.14473 107.139 8.996 108.149 8.996C109.642 8.996 110.816 9.3114 111.673 9.9422C112.534 10.573 113.037 11.432 113.18 12.5193ZM125.344 12.5193L122.344 12.7039C122.293 12.4475 122.183 12.2167 122.014 12.0115C121.844 11.8013 121.621 11.6346 121.344 11.5115C121.072 11.3833 120.747 11.3192 120.367 11.3192C119.86 11.3192 119.431 11.4269 119.083 11.6423C118.734 11.8526 118.56 12.1346 118.56 12.4885C118.56 12.7705 118.672 13.009 118.898 13.2039C119.124 13.3988 119.511 13.5552 120.06 13.6732L122.198 14.1039C123.347 14.3399 124.203 14.7194 124.768 15.2425C125.332 15.7656 125.614 16.4528 125.614 17.3041C125.614 18.0785 125.385 18.758 124.929 19.3427C124.478 19.9273 123.857 20.3837 123.067 20.712C122.283 21.0351 121.378 21.1966 120.352 21.1966C118.788 21.1966 117.542 20.8709 116.613 20.2196C115.69 19.5632 115.149 18.6708 114.99 17.5426L118.213 17.3733C118.311 17.8503 118.547 18.2144 118.921 18.4657C119.295 18.7119 119.775 18.8349 120.36 18.8349C120.934 18.8349 121.396 18.7247 121.744 18.5042C122.098 18.2785 122.278 17.9888 122.283 17.6349C122.278 17.3374 122.152 17.0938 121.906 16.9041C121.66 16.7092 121.28 16.5605 120.767 16.4579L118.721 16.0502C117.567 15.8194 116.708 15.4194 116.144 14.8501C115.585 14.2809 115.306 13.5552 115.306 12.6731C115.306 11.9141 115.511 11.2602 115.921 10.7115C116.336 10.1627 116.918 9.73963 117.667 9.44218C118.421 9.14473 119.303 8.996 120.313 8.996C121.806 8.996 122.98 9.3114 123.837 9.9422C124.698 10.573 125.201 11.432 125.344 12.5193Z" fill="white" fill-opacity="0.35"/>
<path fill-rule="evenodd" clip-rule="evenodd" d="M12.962 9.53979L16.5069 13.0847L13.1316 16.46L9.58672 12.9151L12.962 9.53979ZM9.32748 5.90526L7.10496 3.68274C6.97819 3.55596 6.97819 3.35042 7.10496 3.22364L10.2804 0.0482065C10.4072 -0.0785688 10.6127 -0.0785689 10.7395 0.0482065L21.5953 10.904C22.7996 12.1084 22.7996 14.061 21.5953 15.2654L16.7662 20.0945L18.9887 22.317C19.1154 22.4438 19.1154 22.6494 18.9887 22.7761L15.8132 25.9516C15.6865 26.0783 15.4809 26.0783 15.3541 25.9516L4.49838 15.0958C3.294 13.8914 3.294 11.9387 4.49838 10.7344L9.32748 5.90526Z" fill="white" fill-opacity="0.35"/>
</svg>
