<svg width="135" height="27" viewBox="0 0 135 27" fill="none" xmlns="http://www.w3.org/2000/svg">
<path d="M40.8303 21.2764C39.0932 21.2764 37.6404 20.6923 36.4721 19.5239C35.3191 18.3556 34.7426 16.9106 34.7426 15.1888C34.7426 13.467 35.3191 12.022 36.4721 10.8537C37.6404 9.68532 39.0932 9.10115 40.8303 9.10115C41.9525 9.10115 42.9748 9.37018 43.8972 9.90823C44.8195 10.4463 45.519 11.1688 45.9956 12.0758L43.436 13.5747C43.2054 13.0981 42.8518 12.7215 42.3753 12.4447C41.9141 12.168 41.3914 12.0297 40.8072 12.0297C39.9156 12.0297 39.1777 12.3295 38.5935 12.929C38.0094 13.5132 37.7173 14.2664 37.7173 15.1888C37.7173 16.0958 38.0094 16.8491 38.5935 17.4486C39.1777 18.0328 39.9156 18.3249 40.8072 18.3249C41.4068 18.3249 41.9371 18.1942 42.3983 17.9329C42.8749 17.6561 43.2285 17.2795 43.459 16.8029L46.0417 18.2787C45.5344 19.1857 44.8195 19.9159 43.8972 20.4694C42.9748 21.0074 41.9525 21.2764 40.8303 21.2764ZM57.258 19.5239C56.0743 20.6923 54.6293 21.2764 52.9229 21.2764C51.2165 21.2764 49.7715 20.6923 48.5877 19.5239C47.4194 18.3402 46.8352 16.8952 46.8352 15.1888C46.8352 13.4824 47.4194 12.0451 48.5877 10.8767C49.7715 9.69301 51.2165 9.10115 52.9229 9.10115C54.6293 9.10115 56.0743 9.69301 57.258 10.8767C58.4417 12.0451 59.0336 13.4824 59.0336 15.1888C59.0336 16.8952 58.4417 18.3402 57.258 19.5239ZM50.6861 17.4717C51.2857 18.0712 52.0313 18.371 52.9229 18.371C53.8145 18.371 54.5601 18.0712 55.1596 17.4717C55.7592 16.8721 56.0589 16.1112 56.0589 15.1888C56.0589 14.2664 55.7592 13.5055 55.1596 12.9059C54.5601 12.3064 53.8145 12.0066 52.9229 12.0066C52.0313 12.0066 51.2857 12.3064 50.6861 12.9059C50.102 13.5055 49.8099 14.2664 49.8099 15.1888C49.8099 16.1112 50.102 16.8721 50.6861 17.4717ZM73.878 9.10115C75.2001 9.10115 76.2531 9.53159 77.0371 10.3925C77.8365 11.2534 78.2362 12.4063 78.2362 13.8514V20.9536H75.2615V14.0589C75.2615 13.3671 75.0924 12.8291 74.7542 12.4447C74.416 12.0604 73.9395 11.8683 73.3246 11.8683C72.6482 11.8683 72.1178 12.0912 71.7335 12.537C71.3645 12.9828 71.1801 13.6285 71.1801 14.474V20.9536H68.2054V14.0589C68.2054 13.3671 68.0363 12.8291 67.6981 12.4447C67.3599 12.0604 66.8833 11.8683 66.2684 11.8683C65.6074 11.8683 65.077 12.0912 64.6773 12.537C64.293 12.9828 64.1009 13.6285 64.1009 14.474V20.9536H61.1262V9.42398H64.1009V10.6461C64.7926 9.61614 65.8611 9.10115 67.3061 9.10115C68.7204 9.10115 69.7658 9.65458 70.4422 10.7614C71.2108 9.65458 72.3561 9.10115 73.878 9.10115ZM87.4729 9.10115C89.0255 9.10115 90.3476 9.69301 91.4391 10.8767C92.5459 12.0451 93.0993 13.4824 93.0993 15.1888C93.0993 16.8952 92.5459 18.3402 91.4391 19.5239C90.3476 20.6923 89.0255 21.2764 87.4729 21.2764C85.8587 21.2764 84.6135 20.7153 83.7373 19.5931V25.5655H80.7626V9.42398H83.7373V10.7845C84.6135 9.66226 85.8587 9.10115 87.4729 9.10115ZM84.6366 17.5408C85.2361 18.1404 85.9971 18.4402 86.9194 18.4402C87.8418 18.4402 88.6028 18.1404 89.2023 17.5408C89.8172 16.9259 90.1247 16.1419 90.1247 15.1888C90.1247 14.2357 89.8172 13.4594 89.2023 12.8598C88.6028 12.2449 87.8418 11.9374 86.9194 11.9374C85.9971 11.9374 85.2361 12.2449 84.6366 12.8598C84.037 13.4594 83.7373 14.2357 83.7373 15.1888C83.7373 16.1419 84.037 16.9259 84.6366 17.5408ZM103.96 9.42398H106.934V20.9536H103.96V19.5931C103.068 20.7153 101.815 21.2764 100.201 21.2764C98.6637 21.2764 97.3417 20.6923 96.2348 19.5239C95.1434 18.3402 94.5976 16.8952 94.5976 15.1888C94.5976 13.4824 95.1434 12.0451 96.2348 10.8767C97.3417 9.69301 98.6637 9.10115 100.201 9.10115C101.815 9.10115 103.068 9.66226 103.96 10.7845V9.42398ZM98.4716 17.5408C99.0711 18.1404 99.8321 18.4402 100.754 18.4402C101.677 18.4402 102.438 18.1404 103.037 17.5408C103.652 16.9259 103.96 16.1419 103.96 15.1888C103.96 14.2357 103.652 13.4594 103.037 12.8598C102.438 12.2449 101.677 11.9374 100.754 11.9374C99.8321 11.9374 99.0711 12.2449 98.4716 12.8598C97.872 13.4594 97.5723 14.2357 97.5723 15.1888C97.5723 16.1419 97.872 16.9259 98.4716 17.5408ZM116.042 9.10115C117.303 9.10115 118.34 9.52391 119.155 10.3694C119.985 11.2149 120.4 12.3833 120.4 13.8744V20.9536H117.426V14.2434C117.426 13.4747 117.218 12.8906 116.803 12.4909C116.388 12.0758 115.835 11.8683 115.143 11.8683C114.374 11.8683 113.759 12.1065 113.298 12.5831C112.837 13.0597 112.606 13.7745 112.606 14.7276V20.9536H109.632V9.42398H112.606V10.7153C113.329 9.6392 114.474 9.10115 116.042 9.10115ZM130.21 9.42398H133.392L129.195 20.9536C128.596 22.6139 127.796 23.813 126.797 24.5509C125.813 25.3041 124.583 25.6423 123.108 25.5655V22.7984C123.907 22.8137 124.537 22.6446 124.999 22.2911C125.475 21.9375 125.852 21.3687 126.128 20.5847L121.401 9.42398H124.653L127.65 17.1719L130.21 9.42398Z" fill="white" fill-opacity="0.35"/>
<path d="M7.55615 16.8003C7.55634 17.7949 8.36229 18.6009 9.35693 18.6011H16.7515V24.228C16.7515 25.2229 15.9446 26.0298 14.9497 26.0298H1.82568C0.830766 26.0298 0.0239258 25.2229 0.0239258 24.228V10.9458C0.0239732 9.95092 0.830795 9.14404 1.82568 9.14404H7.55615V16.8003ZM22.4819 1.71631C23.4767 1.71646 24.2827 2.52324 24.2827 3.51807V16.8003C24.2825 17.795 23.4766 18.6009 22.4819 18.6011H16.7515V10.9458C16.7514 9.95092 15.9446 9.14404 14.9497 9.14404H7.55615V3.51807C7.55615 2.52326 8.36217 1.71649 9.35693 1.71631H22.4819Z" fill="white" fill-opacity="0.35"/>
</svg>
