<svg width="115" height="27" viewBox="0 0 115 27" fill="none" xmlns="http://www.w3.org/2000/svg">
<path d="M39.7614 12.6853C39.7614 12.9933 39.9616 13.2473 40.3619 13.4475C40.7777 13.6323 41.2781 13.8017 41.8632 13.9556C42.4484 14.0942 43.0335 14.279 43.6186 14.51C44.2037 14.7256 44.6965 15.0951 45.0968 15.6186C45.5126 16.1422 45.7205 16.7966 45.7205 17.5819C45.7205 18.7676 45.2739 19.6838 44.3808 20.3305C43.5031 20.9618 42.4022 21.2775 41.0779 21.2775C38.7066 21.2775 37.0898 20.3613 36.2275 18.5289L38.8144 17.0738C39.1532 18.0747 39.9077 18.5751 41.0779 18.5751C42.1404 18.5751 42.6716 18.244 42.6716 17.5819C42.6716 17.2739 42.4638 17.0276 42.048 16.8428C41.6477 16.6426 41.1549 16.4655 40.5698 16.3116C39.9847 16.1576 39.3995 15.9651 38.8144 15.7341C38.2293 15.5032 37.7288 15.1413 37.3131 14.6486C36.9127 14.1404 36.7126 13.5091 36.7126 12.7546C36.7126 11.6151 37.1283 10.722 37.9598 10.0753C38.8067 9.4132 39.8538 9.08214 41.101 9.08214C42.0403 9.08214 42.8949 9.29771 43.6648 9.72886C44.4347 10.1446 45.0429 10.7451 45.4895 11.5304L42.9488 12.9163C42.5792 12.131 41.9633 11.7383 41.101 11.7383C40.7161 11.7383 40.3927 11.823 40.1309 11.9924C39.8846 12.1618 39.7614 12.3927 39.7614 12.6853ZM53.9041 12.2696H51.2941V17.0738C51.2941 17.4741 51.3942 17.7667 51.5944 17.9515C51.7945 18.1362 52.0871 18.244 52.4721 18.2748C52.857 18.2902 53.3344 18.2825 53.9041 18.2517V20.9541C51.8561 21.1851 50.4087 20.9926 49.5618 20.3767C48.7303 19.7607 48.3146 18.6598 48.3146 17.0738V12.2696H46.3051V9.4055H48.3146V7.07268L51.2941 6.17189V9.4055H53.9041V12.2696ZM64.4209 9.4055H67.4004V20.9541H64.4209V19.5914C63.5278 20.7154 62.2729 21.2775 60.6561 21.2775C59.1162 21.2775 57.792 20.6923 56.6833 19.5221C55.5901 18.3364 55.0434 16.889 55.0434 15.1798C55.0434 13.4706 55.5901 12.0309 56.6833 10.8606C57.792 9.67497 59.1162 9.08214 60.6561 9.08214C62.2729 9.08214 63.5278 9.64417 64.4209 10.7682V9.4055ZM58.9238 17.5357C59.5243 18.1362 60.2865 18.4365 61.2104 18.4365C62.1343 18.4365 62.8965 18.1362 63.497 17.5357C64.1129 16.9198 64.4209 16.1345 64.4209 15.1798C64.4209 14.2251 64.1129 13.4475 63.497 12.847C62.8965 12.2311 62.1343 11.9231 61.2104 11.9231C60.2865 11.9231 59.5243 12.2311 58.9238 12.847C58.3232 13.4475 58.023 14.2251 58.023 15.1798C58.023 16.1345 58.3232 16.9198 58.9238 17.5357ZM73.0818 11.3919C73.359 10.6527 73.8132 10.0984 74.4445 9.72886C75.0913 9.35931 75.8073 9.17453 76.5926 9.17453V12.5005C75.6841 12.3927 74.868 12.5775 74.1443 13.0549C73.436 13.5322 73.0818 14.3252 73.0818 15.4339V20.9541H70.1023V9.4055H73.0818V11.3919ZM85.2567 12.2696H82.6468V17.0738C82.6468 17.4741 82.7468 17.7667 82.947 17.9515C83.1472 18.1362 83.4398 18.244 83.8247 18.2748C84.2097 18.2902 84.687 18.2825 85.2567 18.2517V20.9541C83.2088 21.1851 81.7614 20.9926 80.9145 20.3767C80.083 19.7607 79.6672 18.6598 79.6672 17.0738V12.2696H77.6578V9.4055H79.6672V7.07268L82.6468 6.17189V9.4055H85.2567V12.2696ZM95.16 9.4055H98.1396V20.9541H95.16V19.6607C94.4363 20.7385 93.2891 21.2775 91.7185 21.2775C90.4559 21.2775 89.4088 20.854 88.5773 20.0071C87.7612 19.1602 87.3532 17.99 87.3532 16.4963V9.4055H90.3327V16.1268C90.3327 16.8967 90.5406 17.4895 90.9563 17.9053C91.3721 18.3056 91.9264 18.5058 92.6193 18.5058C93.3892 18.5058 94.0052 18.2671 94.4671 17.7898C94.929 17.3124 95.16 16.5964 95.16 15.6417V9.4055ZM107.59 9.08214C109.145 9.08214 110.469 9.67497 111.562 10.8606C112.671 12.0309 113.225 13.4706 113.225 15.1798C113.225 16.889 112.671 18.3364 111.562 19.5221C110.469 20.6923 109.145 21.2775 107.59 21.2775C105.973 21.2775 104.726 20.7154 103.848 19.5914V25.5735H100.868V9.4055H103.848V10.7682C104.726 9.64417 105.973 9.08214 107.59 9.08214ZM104.749 17.5357C105.349 18.1362 106.112 18.4365 107.035 18.4365C107.959 18.4365 108.722 18.1362 109.322 17.5357C109.938 16.9198 110.246 16.1345 110.246 15.1798C110.246 14.2251 109.938 13.4475 109.322 12.847C108.722 12.2311 107.959 11.9231 107.035 11.9231C106.112 11.9231 105.349 12.2311 104.749 12.847C104.148 13.4475 103.848 14.2251 103.848 15.1798C103.848 16.1345 104.148 16.9198 104.749 17.5357Z" fill="white" fill-opacity="0.35"/>
<path d="M23.7195 5.0415C24.793 5.04153 25.6636 5.91135 25.6638 6.98486V14.9497C25.6637 15.9719 24.8345 16.8003 23.8123 16.8003C22.7902 16.8001 21.9618 15.9718 21.9617 14.9497V11.1753L15.5212 17.5854C14.6223 18.4803 13.173 18.4938 12.2585 17.6147L9.77515 15.2261C9.4688 14.9316 8.98238 14.9379 8.68335 15.2397L3.4646 20.5112C2.73967 21.2436 1.55526 21.239 0.83667 20.5005C0.133663 19.7777 0.142857 18.6233 0.857178 17.9116L7.85327 10.9419C8.6108 10.1875 9.8355 10.186 10.5945 10.939L13.9041 14.2231L19.4568 8.59814H15.6824C14.7004 8.598 13.9042 7.8018 13.9041 6.81982C13.9041 5.83772 14.7003 5.04165 15.6824 5.0415H23.7195Z" fill="white" fill-opacity="0.35"/>
</svg>
