<svg width="24" height="24" viewBox="0 0 24 24" fill="none" xmlns="http://www.w3.org/2000/svg">
<g clip-path="url(#clip0_949_785)">
<path d="M12.707 3.63605C12.5194 3.44858 12.2651 3.34326 12 3.34326C11.7348 3.34326 11.4805 3.44858 11.293 3.63605L5.63598 9.29305C5.54047 9.3853 5.46428 9.49564 5.41188 9.61764C5.35947 9.73965 5.33188 9.87087 5.33073 10.0036C5.32957 10.1364 5.35487 10.2681 5.40516 10.391C5.45544 10.5139 5.52969 10.6256 5.62358 10.7194C5.71747 10.8133 5.82913 10.8876 5.95202 10.9379C6.07492 10.9882 6.2066 11.0135 6.33938 11.0123C6.47216 11.0111 6.60338 10.9836 6.72538 10.9311C6.84739 10.8787 6.95773 10.8026 7.04998 10.707L11 6.75705V20C11 20.2653 11.1053 20.5196 11.2929 20.7072C11.4804 20.8947 11.7348 21 12 21C12.2652 21 12.5195 20.8947 12.7071 20.7072C12.8946 20.5196 13 20.2653 13 20V6.75705L16.95 10.707C17.1386 10.8892 17.3912 10.99 17.6534 10.9877C17.9156 10.9854 18.1664 10.8803 18.3518 10.6949C18.5372 10.5095 18.6424 10.2586 18.6447 9.99645C18.6469 9.73425 18.5461 9.48165 18.364 9.29305L12.707 3.63605Z" fill="#BDE153"/>
</g>
<defs>
<clipPath id="clip0_949_785">
<rect width="24" height="24" fill="white"/>
</clipPath>
</defs>
</svg>
