<svg width="24" height="24" viewBox="0 0 24 24" fill="none" xmlns="http://www.w3.org/2000/svg">
<path fill-rule="evenodd" clip-rule="evenodd" d="M12 10.75C11.498 10.75 11.186 11.075 11.014 11.3C10.849 11.514 10.684 11.811 10.514 12.116L10.393 12.334L10.336 12.434L10.237 12.457L9.99898 12.511C9.67198 12.585 9.34598 12.659 9.09598 12.757C8.81998 12.866 8.44598 13.077 8.30098 13.542C8.15898 13.998 8.33798 14.383 8.49398 14.632C8.63898 14.862 8.85898 15.118 9.08398 15.381L9.24398 15.569L9.32698 15.666L9.31398 15.801L9.28998 16.051C9.25598 16.403 9.22298 16.743 9.23498 17.015C9.24698 17.3 9.31498 17.732 9.70298 18.025C10.103 18.329 10.543 18.263 10.823 18.183C11.081 18.109 11.386 17.968 11.693 17.827L11.915 17.724L12 17.686L12.037 17.703L12.085 17.724L12.308 17.827C12.614 17.968 12.919 18.109 13.177 18.183C13.457 18.263 13.897 18.329 14.297 18.026C14.684 17.732 14.753 17.3 14.765 17.015C14.777 16.743 14.745 16.402 14.71 16.05L14.686 15.801L14.674 15.666C14.694 15.64 14.7213 15.6077 14.756 15.569L14.916 15.381C15.141 15.118 15.361 14.861 15.506 14.631C15.662 14.383 15.841 13.998 15.699 13.541C15.555 13.078 15.18 12.866 14.904 12.757C14.654 12.659 14.328 12.585 14.001 12.511L13.763 12.457L13.663 12.434L13.607 12.334L13.486 12.116C13.316 11.811 13.151 11.514 12.986 11.3C12.814 11.075 12.502 10.75 12 10.75ZM11.801 12.888C11.8757 12.752 11.942 12.6343 12 12.535C12.0573 12.6343 12.1237 12.752 12.199 12.888L12.297 13.064L12.32 13.104C12.398 13.248 12.528 13.486 12.745 13.651C12.966 13.819 13.233 13.877 13.388 13.911L13.432 13.921L13.622 13.963C13.798 14.003 13.941 14.035 14.062 14.066C13.983 14.164 13.88 14.285 13.746 14.442L13.616 14.594L13.586 14.629C13.478 14.753 13.304 14.954 13.223 15.213C13.143 15.469 13.171 15.733 13.188 15.899L13.193 15.946L13.213 16.149C13.231 16.337 13.245 16.487 13.255 16.609C13.15 16.564 13.032 16.509 12.891 16.444L12.712 16.362L12.672 16.343C12.528 16.275 12.279 16.158 12 16.158C11.721 16.158 11.472 16.275 11.328 16.343L11.288 16.362L11.109 16.444C10.9697 16.5087 10.8483 16.564 10.745 16.61C10.755 16.487 10.769 16.337 10.787 16.149L10.807 15.946L10.812 15.899C10.829 15.733 10.857 15.469 10.777 15.213C10.697 14.953 10.522 14.753 10.414 14.629L10.384 14.594L10.254 14.442C10.1472 14.3179 10.0418 14.1926 9.93798 14.066C10.059 14.036 10.202 14.003 10.378 13.963L10.568 13.92L10.612 13.91C10.767 13.877 11.034 13.819 11.255 13.65C11.472 13.486 11.602 13.248 11.68 13.105L11.703 13.065L11.801 12.888Z" fill="#BDE153"/>
<path fill-rule="evenodd" clip-rule="evenodd" d="M12 1.25C11.294 1.25 10.845 1.75 10.543 2.197C10.237 2.652 9.91799 3.307 9.53899 4.083L7.27599 8.72C7.05699 9.168 6.91599 9.455 6.79399 9.654C6.7545 9.72344 6.70682 9.7879 6.65199 9.846C6.62463 9.8581 6.5949 9.86391 6.56499 9.863C6.50908 9.82759 6.45682 9.78673 6.40899 9.741C6.24699 9.591 6.04499 9.362 5.72499 8.998L5.69599 8.965C5.12399 8.313 4.65599 7.78 4.26999 7.42C4.08203 7.23679 3.87289 7.07666 3.64699 6.943C3.40057 6.79516 3.11463 6.72673 2.82799 6.747C2.59773 6.76895 2.37415 6.83659 2.17034 6.94597C1.96653 7.05534 1.78657 7.20426 1.64099 7.384C1.28599 7.813 1.24599 8.413 1.25099 8.931C1.25499 9.491 1.32499 10.234 1.41099 11.158L1.64899 13.68C1.83399 15.646 1.97899 17.185 2.22899 18.381C2.48499 19.599 2.86899 20.564 3.60399 21.314C4.34899 22.077 5.26399 22.425 6.39599 22.591C7.48399 22.75 8.85899 22.75 10.581 22.75H13.419C15.141 22.75 16.516 22.75 17.604 22.59C18.736 22.425 19.651 22.077 20.396 21.314C21.13 20.564 21.515 19.599 21.77 18.381C22.021 17.185 22.166 15.646 22.351 13.68L22.589 11.158C22.676 10.234 22.746 9.491 22.749 8.931C22.754 8.413 22.714 7.813 22.359 7.384C22.2134 7.20426 22.0334 7.05534 21.8296 6.94597C21.6258 6.83659 21.4023 6.76895 21.172 6.747C20.8853 6.72673 20.5994 6.79516 20.353 6.943C20.1271 7.07666 19.9179 7.23679 19.73 7.42C19.344 7.78 18.876 8.313 18.304 8.965L18.274 8.998C17.954 9.362 17.753 9.591 17.591 9.741C17.5435 9.78668 17.4916 9.82754 17.436 9.863C17.4057 9.86406 17.3757 9.85825 17.348 9.846C17.2932 9.7879 17.2455 9.72344 17.206 9.654C17.084 9.455 16.943 9.168 16.724 8.72L14.461 4.083C14.082 3.306 13.763 2.652 13.457 2.197C13.155 1.749 12.707 1.25 12 1.25ZM10.861 4.794C11.273 3.95 11.547 3.392 11.787 3.035C11.8478 2.93958 11.9193 2.85135 12 2.772C12.04 2.809 12.11 2.884 12.213 3.035C12.453 3.392 12.727 3.95 13.139 4.794L15.392 9.41C15.59 9.817 15.763 10.17 15.928 10.44C16.098 10.715 16.32 11.008 16.668 11.183C16.981 11.341 17.334 11.399 17.684 11.343C18.077 11.281 18.375 11.058 18.609 10.842C18.836 10.632 19.089 10.344 19.377 10.016L19.402 9.988C20.01 9.295 20.429 8.819 20.754 8.516C20.914 8.366 21.02 8.289 21.085 8.253C21.1284 8.27049 21.1671 8.29789 21.198 8.333L21.199 8.34C21.209 8.37 21.253 8.512 21.249 8.92C21.246 9.407 21.183 10.085 21.092 11.056L20.862 13.491C20.672 15.515 20.534 16.97 20.302 18.073C20.073 19.163 19.772 19.807 19.324 20.266C18.886 20.714 18.324 20.97 17.387 21.106C16.42 21.248 15.155 21.25 13.36 21.25H10.64C8.84499 21.25 7.57999 21.248 6.61299 21.107C5.67599 20.97 5.11399 20.714 4.67599 20.266C4.22799 19.807 3.92599 19.163 3.69799 18.073C3.46599 16.97 3.32799 15.515 3.13799 13.491L2.90799 11.056C2.81799 10.085 2.75399 9.406 2.74999 8.919C2.74699 8.512 2.79199 8.369 2.79999 8.339L2.80299 8.334C2.83311 8.29841 2.87112 8.27034 2.91399 8.252C2.97899 8.289 3.08499 8.366 3.24599 8.516C3.57099 8.819 3.98999 9.295 4.59799 9.988L4.62299 10.016C4.91099 10.344 5.16399 10.633 5.39099 10.842C5.62499 11.058 5.92299 11.282 6.31599 11.344C6.66599 11.399 7.01899 11.341 7.33199 11.183C7.67999 11.008 7.90199 10.715 8.07199 10.44C8.23699 10.17 8.40999 9.817 8.60799 9.41L10.861 4.794ZM12.044 2.74L12.034 2.744C12.0407 2.74 12.044 2.73867 12.044 2.74Z" fill="#BDE153"/>
</svg>
