<svg width="24" height="24" viewBox="0 0 24 24" fill="none" xmlns="http://www.w3.org/2000/svg">
<path fill-rule="evenodd" clip-rule="evenodd" d="M12 1.25C11.395 1.25 10.838 1.4 10.229 1.652C9.64 1.896 8.956 2.255 8.105 2.702L6.037 3.787C4.992 4.335 4.157 4.774 3.51 5.205C2.842 5.652 2.326 6.122 1.951 6.759C1.577 7.394 1.409 8.082 1.328 8.901C1.25 9.696 1.25 10.673 1.25 11.903V12.097C1.25 13.327 1.25 14.304 1.328 15.099C1.409 15.919 1.578 16.606 1.951 17.241C2.326 17.878 2.841 18.348 3.511 18.795C4.156 19.226 4.992 19.665 6.037 20.213L8.105 21.298C8.956 21.745 9.64 22.104 10.229 22.348C10.839 22.6 11.395 22.75 12 22.75C12.605 22.75 13.162 22.6 13.771 22.348C14.36 22.104 15.044 21.745 15.895 21.298L17.963 20.214C19.008 19.665 19.843 19.226 20.489 18.795C21.159 18.348 21.674 17.878 22.049 17.241C22.423 16.606 22.591 15.918 22.672 15.099C22.75 14.304 22.75 13.327 22.75 12.098V11.902C22.75 10.673 22.75 9.696 22.672 8.901C22.591 8.081 22.422 7.394 22.049 6.759C21.674 6.122 21.159 5.652 20.489 5.205C19.844 4.774 19.008 4.335 17.963 3.787L15.895 2.702C15.044 2.255 14.36 1.896 13.771 1.652C13.161 1.4 12.605 1.25 12 1.25ZM8.77 4.046C9.66 3.579 10.284 3.253 10.802 3.039C11.306 2.83 11.661 2.75 12 2.75C12.34 2.75 12.694 2.83 13.198 3.039C13.716 3.253 14.339 3.579 15.229 4.046L17.229 5.096C18.319 5.667 19.084 6.07 19.657 6.452C19.939 6.641 20.16 6.816 20.34 6.992L12 11.162L3.66 6.992C3.84 6.816 4.061 6.641 4.344 6.452C4.916 6.07 5.681 5.667 6.771 5.096L8.77 4.046ZM2.939 8.307C2.889 8.521 2.85 8.764 2.822 9.047C2.752 9.761 2.751 10.664 2.751 11.941V12.058C2.751 13.336 2.751 14.239 2.822 14.952C2.891 15.649 3.022 16.1 3.245 16.48C3.467 16.857 3.788 17.176 4.345 17.548C4.917 17.93 5.682 18.333 6.772 18.904L8.772 19.954C9.662 20.421 10.285 20.747 10.803 20.961C10.9657 21.0283 11.115 21.0833 11.251 21.126V12.463L2.939 8.307ZM12.751 21.125C12.887 21.083 13.0363 21.0283 13.199 20.961C13.717 20.747 14.34 20.421 15.23 19.954L17.23 18.904C18.32 18.332 19.085 17.93 19.658 17.548C20.214 17.176 20.535 16.857 20.758 16.48C20.981 16.1 21.111 15.65 21.18 14.952C21.25 14.239 21.251 13.336 21.251 12.059V11.942C21.251 10.664 21.251 9.761 21.18 9.048C21.1565 8.79914 21.1174 8.55199 21.063 8.308L12.751 12.464V21.125Z" fill="#BDE153"/>
</svg>
