<svg width="24" height="24" viewBox="0 0 24 24" fill="none" xmlns="http://www.w3.org/2000/svg">
<path d="M2 12C2 8.229 2 6.343 3.172 5.172C4.344 4.001 6.229 4 10 4H14C17.771 4 19.657 4 20.828 5.172C21.999 6.344 22 8.229 22 12V14C22 17.771 22 19.657 20.828 20.828C19.656 21.999 17.771 22 14 22H10C6.229 22 4.343 22 3.172 20.828C2.001 19.656 2 17.771 2 14V12Z" stroke="#BDE153" stroke-width="1.5"/>
<path d="M18 16H16M16 16H14M16 16V14M16 16V18M7 4V2.5M17 4V2.5M2.5 9H21.5" stroke="#BDE153" stroke-width="1.5" stroke-linecap="round"/>
</svg>
