<svg width="24" height="24" viewBox="0 0 24 24" fill="none" xmlns="http://www.w3.org/2000/svg">
<path d="M7.16998 9.335C7.29398 9.088 7.75698 8.75 8.49998 8.75C9.24298 8.75 9.70598 9.088 9.82998 9.335C9.87088 9.42802 9.93025 9.51176 10.0045 9.58114C10.0787 9.65052 10.1663 9.70409 10.2619 9.7386C10.3574 9.7731 10.459 9.78783 10.5605 9.78188C10.6619 9.77593 10.7611 9.74943 10.852 9.70399C10.9429 9.65854 11.0236 9.59511 11.0892 9.51752C11.1548 9.43994 11.204 9.34983 11.2337 9.25267C11.2635 9.15551 11.2731 9.05331 11.2622 8.95229C11.2512 8.85127 11.2199 8.75353 11.17 8.665C10.713 7.747 9.60398 7.25 8.49998 7.25C7.39598 7.25 6.28798 7.747 5.82998 8.665C5.7801 8.75353 5.74873 8.85127 5.73777 8.95229C5.72681 9.05331 5.7365 9.15551 5.76624 9.25267C5.79598 9.34983 5.84515 9.43994 5.91078 9.51752C5.9764 9.59511 6.0571 9.65854 6.14799 9.70399C6.23887 9.74943 6.33805 9.77593 6.43949 9.78188C6.54093 9.78783 6.64252 9.7731 6.73809 9.7386C6.83367 9.70409 6.92123 9.65052 6.99548 9.58114C7.06972 9.51176 7.12909 9.42802 7.16998 9.335ZM15.5 8.75C14.757 8.75 14.294 9.088 14.17 9.335C14.0755 9.5027 13.9201 9.62766 13.7361 9.68399C13.552 9.74033 13.3533 9.72374 13.1812 9.63765C13.009 9.55157 12.8765 9.40258 12.8111 9.22153C12.7458 9.04047 12.7525 8.84122 12.83 8.665C13.288 7.747 14.396 7.25 15.5 7.25C16.604 7.25 17.712 7.747 18.17 8.665C18.2199 8.75353 18.2512 8.85127 18.2622 8.95229C18.2731 9.05331 18.2635 9.15551 18.2337 9.25267C18.204 9.34983 18.1548 9.43994 18.0892 9.51752C18.0236 9.59511 17.9429 9.65854 17.852 9.70399C17.7611 9.74943 17.6619 9.77593 17.5605 9.78188C17.459 9.78783 17.3574 9.7731 17.2619 9.7386C17.1663 9.70409 17.0787 9.65052 17.0045 9.58114C16.9302 9.51176 16.8709 9.42802 16.83 9.335C16.706 9.088 16.243 8.75 15.5 8.75Z" fill="#BDE153"/>
<path fill-rule="evenodd" clip-rule="evenodd" d="M8.835 2.21193L7.725 2.02693C6.692 1.85493 5.837 1.71193 5.155 1.69593C4.439 1.67893 3.776 1.79393 3.222 2.26293C2.669 2.73093 2.446 3.36693 2.346 4.07493C2.25 4.74993 2.25 5.61493 2.25 6.66193V11.9999C2.25 17.9639 6.874 20.8139 9.605 21.9759L9.632 21.9879C9.972 22.1319 10.29 22.2679 10.656 22.3589C11.042 22.4549 11.452 22.4959 12 22.4959C12.548 22.4959 12.958 22.4559 13.344 22.3589C13.71 22.2679 14.028 22.1319 14.368 21.9869L14.395 21.9769C17.126 20.8139 21.75 17.9639 21.75 11.9999V6.66193C21.75 5.61493 21.75 4.74993 21.654 4.07493C21.554 3.36593 21.331 2.73093 20.778 2.26293C20.224 1.79293 19.561 1.67893 18.845 1.69593C18.163 1.71193 17.308 1.85493 16.275 2.02693L15.165 2.21193C13.501 2.48893 12.751 2.61193 12 2.61193C11.249 2.61193 10.499 2.48893 8.835 2.21193ZM4.192 3.40693C4.346 3.27693 4.576 3.18193 5.119 3.19593C5.682 3.20893 6.431 3.33193 7.534 3.51593L8.662 3.70393C10.232 3.96593 11.11 4.11193 12 4.11193C12.89 4.11193 13.767 3.96593 15.338 3.70393L16.466 3.51593C17.569 3.33193 18.318 3.20893 18.881 3.19593C19.424 3.18193 19.654 3.27593 19.808 3.40693C19.962 3.53693 20.093 3.74893 20.169 4.28593C20.249 4.84293 20.25 5.60093 20.25 6.71893V11.9999C20.25 17.0169 16.396 19.4949 13.808 20.5959C13.437 20.7539 13.221 20.8439 12.981 20.9039C12.751 20.9609 12.471 20.9959 12 20.9959C11.529 20.9959 11.249 20.9609 11.019 20.9039C10.779 20.8439 10.563 20.7539 10.192 20.5959C7.604 19.4949 3.75 17.0159 3.75 11.9999V6.71893C3.75 5.60093 3.752 4.84293 3.831 4.28593C3.907 3.74893 4.038 3.53693 4.192 3.40693Z" fill="#BDE153"/>
<path d="M7.95694 13.4831C7.81996 13.6279 7.74599 13.8211 7.75124 14.0204C7.75649 14.2197 7.84053 14.4087 7.98494 14.5461L8.01494 14.5731L8.07494 14.6231C8.12494 14.6645 8.19261 14.7151 8.27794 14.7751C8.45094 14.8931 8.69994 15.0411 9.02894 15.1871C9.69194 15.4771 10.6689 15.7501 11.9999 15.7501C13.3299 15.7501 14.3079 15.4781 14.9699 15.1871C15.2999 15.0411 15.5499 14.8931 15.7219 14.7751C15.8129 14.7127 15.9004 14.6452 15.9839 14.5731L16.0039 14.5551L16.0119 14.5491L16.0149 14.5461L16.0159 14.5441C16.1612 14.4081 16.2474 14.2199 16.2538 14.021C16.2603 13.8221 16.1875 13.6288 16.0514 13.4836C15.9154 13.3384 15.7272 13.2532 15.5283 13.2467C15.3295 13.2403 15.1362 13.3131 14.9909 13.4491L14.9849 13.4541L14.9749 13.4621L14.8739 13.5381C14.7729 13.6071 14.6059 13.7081 14.3669 13.8131C13.8919 14.0231 13.1199 14.2501 11.9999 14.2501C10.8799 14.2501 10.1079 14.0221 9.63294 13.8131C9.42424 13.7241 9.22631 13.6117 9.04294 13.4781L9.02394 13.4621L9.00994 13.4501C8.86532 13.3161 8.67375 13.2444 8.47667 13.2506C8.2796 13.2568 8.09289 13.3403 7.95694 13.4831Z" fill="#BDE153"/>
</svg>
